<svg xmlns="http://www.w3.org/2000/svg" width="1254" height="1254" viewBox="0 0 1254 1254">
  <rect x="0" y="0" width="1254" height="1254" rx="94" ry="94" fill="#111111"/>
  <path d="M 747.0 169.0 L 738.0 169.0 L 730.0 175.0 L 607.0 430.0 L 396.0 349.0 L 386.0 349.0 L 382.0 351.0 L 376.0 359.0 L 376.0 369.0 L 717.0 933.0 L 615.0 941.0 L 548.0 950.0 L 446.0 969.0 L 442.0 971.0 L 441.0 977.0 L 445.0 981.0 L 602.0 966.0 L 665.0 962.0 L 680.0 963.0 L 596.0 1019.0 L 596.0 1024.0 L 599.0 1027.0 L 604.0 1027.0 L 707.0 974.0 L 714.0 973.0 L 716.0 975.0 L 685.0 1006.0 L 645.0 1054.0 L 644.0 1059.0 L 647.0 1063.0 L 652.0 1063.0 L 736.0 986.0 L 741.0 988.0 L 752.0 987.0 L 767.0 972.0 L 922.0 966.0 L 924.0 961.0 L 920.0 956.0 L 852.0 951.0 L 788.0 949.0 L 787.0 947.0 L 792.0 941.0 L 972.0 864.0 L 973.0 857.0 L 966.0 854.0 L 823.0 904.0 L 822.0 903.0 L 842.0 877.0 L 866.0 841.0 L 866.0 834.0 L 863.0 832.0 L 858.0 832.0 L 772.0 926.0 L 759.0 931.0 L 757.0 930.0 L 757.0 179.0 L 754.0 173.0 Z M 621.0 464.0 L 729.0 508.0 L 728.0 751.0 L 710.0 751.0 L 687.0 754.0 L 650.0 766.0 L 552.0 604.0 Z M 594.0 580.0 L 586.0 585.0 L 583.0 592.0 L 583.0 598.0 L 589.0 607.0 L 600.0 610.0 L 607.0 607.0 L 611.0 603.0 L 613.0 592.0 L 611.0 587.0 L 606.0 582.0 Z M 679.0 566.0 L 672.0 573.0 L 672.0 586.0 L 681.0 594.0 L 691.0 594.0 L 696.0 591.0 L 700.0 585.0 L 700.0 574.0 L 690.0 565.0 Z" fill="#ffffff" fill-rule="evenodd"/>
</svg>